<svg xmlns="http://www.w3.org/2000/svg" width="32" height="32"><g color="#000" font-family="sans-serif" font-weight="400"><path fill="#34485c" fill-rule="evenodd" style="line-height:normal;text-indent:0;text-align:start;text-decoration-line:none;text-decoration-style:solid;text-decoration-color:#000;text-transform:none;block-progression:tb;isolation:auto;mix-blend-mode:normal" d="m308.35 81.574-1 13 .996.076 1-13-.996-.076zm-16.829-2.342-7 6 .653.76 7-6-.653-.76zm-6.244 10.123-.857.514 6 10 .857-.514-6-10zm21.217-8.097-4.531 4.531.707.707 4.531-4.531-.707-.707zm-3.447 11.69-.516.857 2.059 1.236.515-.857-2.058-1.237zm-17.154-4.835-.09.996 3.591.329.092-.997-3.593-.328zm18.796 9.024-10.5 3.5.317.949 10.5-3.5-.317-.95zm-6.27-20.62-.144.989 7.5 1.101.145-.99-7.5-1.1zm-4.468 10.106v1h1.028c1.207 0 1.656.736 1.656 1.49 0 .755-.45 1.49-1.656 1.49h-1.028v1h1.028c1.668 0 2.656-1.254 2.656-2.49 0-1.236-.988-2.49-2.656-2.49h-1.028z" overflow="visible" transform="translate(-279.848 -72.611)"/><path fill="#34485c" fill-rule="evenodd" d="M293.974 88.614v1h4.97v-1h-4.97zm0-2v1h4.97v-1h-4.97zm.68 3.988-.703.71 3.346 3.301.703-.713-3.346-3.298z" overflow="visible" style="line-height:normal;text-indent:0;text-align:start;text-decoration-line:none;text-decoration-style:solid;text-decoration-color:#000;text-transform:none;block-progression:tb;isolation:auto;mix-blend-mode:normal" transform="translate(-279.848 -72.611)"/><path fill="#4bbfeb" style="line-height:normal;text-indent:0;text-align:start;text-decoration-line:none;text-decoration-style:solid;text-decoration-color:#000;text-transform:none;block-progression:tb;isolation:auto;mix-blend-mode:normal" d="M294.848 73.611c-2.204 0-4 1.797-4 4 0 2.204 1.796 4 4 4 2.203 0 4-1.796 4-4 0-2.203-1.797-4-4-4zm0 1c1.662 0 3 1.338 3 3 0 1.663-1.338 3-3 3-1.663 0-3-1.337-3-3 0-1.662 1.337-3 3-3zm-11 10c-1.651 0-3 1.35-3 3 0 1.651 1.349 3 3 3 1.65 0 3-1.349 3-3 0-1.65-1.35-3-3-3zm0 1c1.11 0 2 .89 2 2 0 1.11-.89 2-2 2-1.11 0-2-.89-2-2 0-1.11.89-2 2-2zm8.5 13a2.508 2.508 0 0 0-2.5 2.5c0 1.375 1.125 2.5 2.5 2.5 1.374 0 2.5-1.125 2.5-2.5 0-1.374-1.126-2.5-2.5-2.5zm0 1c.834 0 1.5.666 1.5 1.5 0 .835-.666 1.5-1.5 1.5-.835 0-1.5-.665-1.5-1.5 0-.834.665-1.5 1.5-1.5zm14-6a2.508 2.508 0 0 0-2.5 2.5c0 1.375 1.125 2.5 2.5 2.5 1.374 0 2.5-1.125 2.5-2.5 0-1.374-1.126-2.5-2.5-2.5zm0 1c.834 0 1.5.666 1.5 1.5 0 .835-.666 1.5-1.5 1.5-.835 0-1.5-.665-1.5-1.5 0-.834.665-1.5 1.5-1.5zm1.5-18c-1.651 0-3 1.35-3 3 0 1.651 1.349 3 3 3 1.65 0 3-1.349 3-3 0-1.65-1.35-3-3-3zm0 1c1.11 0 2 .89 2 2 0 1.11-.89 2-2 2-1.11 0-2-.89-2-2 0-1.11.89-2 2-2zm-11.4 4.838c-4.184 0-7.587 3.4-7.587 7.582s3.403 7.58 7.586 7.58c4.184 0 7.586-3.398 7.586-7.58 0-4.181-3.402-7.582-7.586-7.582zm0 1a6.577 6.577 0 0 1 6.585 6.582c0 3.641-2.942 6.58-6.586 6.58a6.575 6.575 0 0 1-6.586-6.58 6.577 6.577 0 0 1 6.586-6.582z" overflow="visible" transform="translate(-279.848 -72.611)"/></g></svg>