<svg width="48" height="48" viewBox="0 0 48 48" fill="none" xmlns="http://www.w3.org/2000/svg">
<g clip-path="url(#clip0_3575_9988)">
<path d="M24 48C37.2548 48 48 37.2548 48 24C48 10.7452 37.2548 0 24 0C10.7452 0 0 10.7452 0 24C0 37.2548 10.7452 48 24 48Z" fill="#2775CA"/>
<path d="M19.5 40.6875C19.5 41.25 19.05 41.5688 18.525 41.4C11.25 39.075 6 32.2875 6 24.2438C6 16.2188 11.25 9.41252 18.525 7.08752C19.0688 6.91877 19.5 7.23752 19.5 7.80002V9.20627C19.5 9.58127 19.2188 10.0125 18.8625 10.1438C13.1062 12.2625 9 17.7938 9 24.2438C9 30.7125 13.1062 36.225 18.8625 38.325C19.2188 38.4563 19.5 38.8875 19.5 39.2625V40.6875Z" fill="white"/>
<path d="M25.5 35.4938C25.5 35.9063 25.1625 36.2438 24.75 36.2438H23.25C22.8375 36.2438 22.5 35.9063 22.5 35.4938V33.1313C19.2188 32.6813 17.625 30.8625 17.1938 28.35C17.1188 27.9188 17.4563 27.5438 17.8875 27.5438H19.5938C19.95 27.5438 20.25 27.8063 20.325 28.1438C20.6438 29.625 21.5063 30.7688 24.1313 30.7688C26.0625 30.7688 27.45 29.6813 27.45 28.0688C27.45 26.4563 26.6438 25.8375 23.7938 25.3688C19.5938 24.8063 17.6063 23.5313 17.6063 20.25C17.6063 17.7188 19.5375 15.7313 22.5 15.3188V12.9938C22.5 12.5813 22.8375 12.2438 23.25 12.2438H24.75C25.1625 12.2438 25.5 12.5813 25.5 12.9938V15.375C27.9188 15.8063 29.4563 17.175 29.9625 19.4625C30.0563 19.8938 29.7188 20.2875 29.2688 20.2875H27.6938C27.3563 20.2875 27.075 20.0625 26.9813 19.7438C26.55 18.3 25.5188 17.6625 23.7188 17.6625C21.7313 17.6625 20.7 18.6188 20.7 19.9688C20.7 21.3938 21.2813 22.1063 24.3375 22.5375C28.4625 23.1 30.6 24.2813 30.6 27.7875C30.6 30.45 28.6125 32.6063 25.5188 33.0938V35.4938H25.5Z" fill="white"/>
<path d="M29.475 41.4C28.9312 41.5687 28.5 41.25 28.5 40.6875V39.2812C28.5 38.8687 28.7437 38.475 29.1375 38.3437C34.875 36.2437 39 30.7125 39 24.2625C39 17.7937 34.8937 12.2812 29.1375 10.1812C28.7812 10.05 28.5 9.61875 28.5 9.24375V7.8375C28.5 7.275 28.95 6.95625 29.475 7.125C36.75 9.4125 42 16.2187 42 24.2437C42 32.2875 36.75 39.075 29.475 41.4Z" fill="white"/>
</g>
<defs>
<clipPath id="clip0_3575_9988">
<rect width="48" height="48" fill="white"/>
</clipPath>
</defs>
</svg>
